<?xml version="1.0" encoding="utf-8"?>
<!-- Generator: Adobe Illustrator 24.1.1, SVG Export Plug-In . SVG Version: 6.00 Build 0)  -->
<svg version="1.1" id="Layer_1" xmlns="http://www.w3.org/2000/svg" xmlns:xlink="http://www.w3.org/1999/xlink" x="0px" y="0px"
	 viewBox="0 0 260 218" style="enable-background:new 0 0 260 218;" xml:space="preserve">
<style type="text/css">
	.st0{fill:none;stroke:#FFFFFF;stroke-width:6.4;stroke-linecap:round;stroke-linejoin:round;stroke-miterlimit:10;}
</style>
<path class="st0" d="M255,175.1l-2.4,3.6C240.3,197,219.8,208,197.8,208h-83.1c-22,0-42.6-11-54.7-29.3l-2.4-3.6 M57.2,175.1
	l2.3-3.6c12.3-18.4,32.9-29.5,54.9-29.5h83.3c22.1,0,42.7,11.1,54.9,29.5l2.3,3.6 M255.2,175.1H146.8 M89.3,175.1H57.2 M255,109.5
	l-2.4,3.6c-12.3,18.3-32.8,29.3-54.7,29.3h-83.2c-22,0-42.6-11-54.7-29.3l-2.4-3.6 M57.2,109.5l2.3-3.6
	c12.3-18.4,32.9-29.5,54.9-29.5h83.3c22.1,0,42.7,11.1,54.9,29.5l2.3,3.6 M255.2,109.3h-25.6 M208.6,109.3h-17.9 M164.7,109.3h-21.3
	 M83.4,109.3H57.2 M119.9,109.3H98.3 M102.4,75.3l-1.2,1.1 M57.4,43.5l2.4,3.6C69.8,62,85.1,72,102.4,75.3c4,0.7,8.1,1.1,12.2,1.1
	h30.6h52.6c22,0,42.6-11,54.7-29.3l2.4-3.6 M57.2,43.5l2.3-3.6c12.3-18.4,32.9-29.5,54.9-29.5h83.3c22.1,0,42.7,11.1,54.9,29.5
	l2.3,3.6 M255.2,43.5h-198"/>
</svg>
