<?xml version="1.0" encoding="utf-8"?>
<!-- Generator: Adobe Illustrator 24.1.1, SVG Export Plug-In . SVG Version: 6.00 Build 0)  -->
<svg version="1.1" id="Layer_1" xmlns="http://www.w3.org/2000/svg" xmlns:xlink="http://www.w3.org/1999/xlink" x="0px" y="0px"
	 viewBox="0 0 260 218" style="enable-background:new 0 0 260 218;" xml:space="preserve">
<style type="text/css">
	.st0{fill:#FFFFFF;}
</style>
<g>
	<g>
		<g>
			<g>
				<path class="st0" d="M245.6,199.6H26.3c-5.6,0-10.1-4.6-10.1-10.2V101c0-5.7,4.5-10.2,10.1-10.2h219.4c5.6,0,10.1,4.6,10.1,10.2
					v88.4C255.7,194.9,251.2,199.6,245.6,199.6z M26.3,97.5c-1.9,0-3.5,1.6-3.5,3.6v88.4c0,2,1.5,3.6,3.5,3.6h219.4
					c1.9,0,3.5-1.6,3.5-3.6v-88.4c0-2-1.5-3.6-3.5-3.6H26.3z"/>
			</g>
		</g>
	</g>
	<g>
		<g>
			<path class="st0" d="M252.3,103.2c-1.8,0-3.3-1.5-3.3-3.3c0-4-0.9-7.8-2.6-11.3L217,28.8c-1.2-2.5-3.6-4-6.2-4H61.1
				c-2.6,0-5,1.5-6.2,4L25.4,88.5c-1.7,3.5-2.6,7.5-2.6,11.3c0,1.8-1.5,3.3-3.3,3.3s-3.3-1.5-3.3-3.3c0-4.9,1.1-9.9,3.3-14.2
				L48.9,26c2.4-4.7,7-7.6,12.2-7.6H211c5.2,0,9.8,2.9,12.2,7.6l29.4,59.6c2.2,4.4,3.3,9.3,3.3,14.2
				C255.7,101.7,254.1,103.2,252.3,103.2z"/>
		</g>
	</g>
	<g>
		<path class="st0" d="M43.7,167.9c-1.8,0-3.3-1.5-3.3-3.3v-26c0-1.8,1.5-3.3,3.3-3.3s3.3,1.5,3.3,3.3v26
			C47,166.4,45.5,167.9,43.7,167.9z"/>
	</g>
	<g>
		<path class="st0" d="M65.3,80.8h-4c-1.8,0-3.3-1.5-3.3-3.3s1.5-3.3,3.3-3.3h4c1.8,0,3.3,1.5,3.3,3.3S67.1,80.8,65.3,80.8z"/>
	</g>
	<g>
		<path class="st0" d="M113.7,80.8h-4c-1.8,0-3.3-1.5-3.3-3.3s1.5-3.3,3.3-3.3h4c1.8,0,3.3,1.5,3.3,3.3S115.6,80.8,113.7,80.8z"/>
	</g>
	<g>
		<path class="st0" d="M162.2,80.8h-4c-1.8,0-3.3-1.5-3.3-3.3s1.5-3.3,3.3-3.3h4c1.8,0,3.3,1.5,3.3,3.3S164,80.8,162.2,80.8z"/>
	</g>
	<g>
		<path class="st0" d="M210.6,80.8h-4c-1.8,0-3.3-1.5-3.3-3.3s1.5-3.3,3.3-3.3h4c1.8,0,3.3,1.5,3.3,3.3
			C213.9,79.3,212.3,80.8,210.6,80.8z"/>
	</g>
	<g>
		<path class="st0" d="M69.8,66.7H66c-1.8,0-3.3-1.5-3.3-3.3s1.5-3.3,3.3-3.3h3.8c1.8,0,3.3,1.5,3.3,3.3S71.6,66.7,69.8,66.7z"/>
	</g>
	<g>
		<path class="st0" d="M115.2,66.7h-3.8c-1.8,0-3.3-1.5-3.3-3.3s1.5-3.3,3.3-3.3h3.8c1.8,0,3.3,1.5,3.3,3.3S117,66.7,115.2,66.7z"/>
	</g>
	<g>
		<path class="st0" d="M160.6,66.7h-3.8c-1.8,0-3.3-1.5-3.3-3.3s1.5-3.3,3.3-3.3h3.8c1.8,0,3.3,1.5,3.3,3.3S162.3,66.7,160.6,66.7z"
			/>
	</g>
	<g>
		<path class="st0" d="M205.9,66.7h-3.8c-1.8,0-3.3-1.5-3.3-3.3s1.5-3.3,3.3-3.3h3.8c1.8,0,3.3,1.5,3.3,3.3S207.7,66.7,205.9,66.7z"
			/>
	</g>
	<g>
		<path class="st0" d="M74.2,52.1h-3.7c-1.8,0-3.3-1.5-3.3-3.3s1.5-3.3,3.3-3.3h3.7c1.8,0,3.3,1.5,3.3,3.3S76.1,52.1,74.2,52.1z"/>
	</g>
	<g>
		<path class="st0" d="M116.6,52.1h-3.7c-1.8,0-3.3-1.5-3.3-3.3s1.5-3.3,3.3-3.3h3.7c1.8,0,3.3,1.5,3.3,3.3S118.4,52.1,116.6,52.1z"
			/>
	</g>
	<g>
		<path class="st0" d="M159,52.1h-3.7c-1.8,0-3.3-1.5-3.3-3.3s1.5-3.3,3.3-3.3h3.7c1.8,0,3.3,1.5,3.3,3.3S160.9,52.1,159,52.1z"/>
	</g>
	<g>
		<path class="st0" d="M201.4,52.1h-3.7c-1.8,0-3.3-1.5-3.3-3.3s1.5-3.3,3.3-3.3h3.7c1.8,0,3.3,1.5,3.3,3.3S203.2,52.1,201.4,52.1z"
			/>
	</g>
	<g>
		<path class="st0" d="M77.9,38.9h-3.6c-1.8,0-3.3-1.5-3.3-3.3s1.5-3.3,3.3-3.3h3.6c1.8,0,3.3,1.5,3.3,3.3S79.7,38.9,77.9,38.9z"/>
	</g>
	<g>
		<path class="st0" d="M117.7,38.9h-3.5c-1.8,0-3.3-1.5-3.3-3.3s1.5-3.3,3.3-3.3h3.6c1.8,0,3.3,1.5,3.3,3.3S119.6,38.9,117.7,38.9z"
			/>
	</g>
	<g>
		<path class="st0" d="M157.6,38.9H154c-1.8,0-3.3-1.5-3.3-3.3s1.5-3.3,3.3-3.3h3.6c1.8,0,3.3,1.5,3.3,3.3S159.4,38.9,157.6,38.9z"
			/>
	</g>
	<g>
		<path class="st0" d="M197.5,38.9H194c-1.8,0-3.3-1.5-3.3-3.3s1.5-3.3,3.3-3.3h3.6c1.8,0,3.3,1.5,3.3,3.3S199.4,38.9,197.5,38.9z"
			/>
	</g>
	<g>
		<path class="st0" d="M74.8,172.3c-1.8,0-3.3-1.5-3.3-3.3v-46.8c0-1.8,1.5-3.3,3.3-3.3s3.3,1.5,3.3,3.3V169
			C78.1,170.9,76.6,172.3,74.8,172.3z"/>
	</g>
	<g>
		<path class="st0" d="M252.3,110.7H19.5c-1.8,0-3.3-1.5-3.3-3.3s1.5-3.3,3.3-3.3h233c1.8,0,3.3,1.5,3.3,3.3
			C255.7,109.2,254.1,110.7,252.3,110.7z"/>
	</g>
	<g>
		<path class="st0" d="M252.3,187.2H19.5c-1.8,0-3.3-1.5-3.3-3.3s1.5-3.3,3.3-3.3h233c1.8,0,3.3,1.5,3.3,3.3
			S254.1,187.2,252.3,187.2z"/>
	</g>
	<g>
		<path class="st0" d="M43.5,139.7c-1.4,0-2.7-0.8-3.2-2.3c-0.6-1.8,0.4-3.6,2.2-4.1l32.7-10.6c1.7-0.6,3.6,0.4,4.1,2.2
			c0.6,1.8-0.4,3.6-2.2,4.1l-32.7,10.5C44.2,139.7,43.8,139.7,43.5,139.7z"/>
	</g>
	<g>
		<path class="st0" d="M43.5,154.2c-1.4,0-2.7-0.8-3.2-2.3c-0.6-1.8,0.4-3.6,2.2-4.1l32.7-10.5c1.7-0.6,3.6,0.4,4.1,2.2
			c0.6,1.8-0.4,3.6-2.2,4.1l-32.7,10.6C44.2,154.2,43.8,154.2,43.5,154.2z"/>
	</g>
	<g>
		<path class="st0" d="M43.5,168.8c-1.4,0-2.7-0.8-3.2-2.3c-0.6-1.8,0.4-3.6,2.2-4.1l32.7-10.6c1.7-0.6,3.6,0.4,4.1,2.2
			c0.6,1.8-0.4,3.6-2.2,4.1l-32.7,10.5C44.2,168.8,43.8,168.8,43.5,168.8z"/>
	</g>
	<g>
		<path class="st0" d="M74.8,172.3c-1.8,0-3.3-1.5-3.3-3.3v-46.8c0-1.8,1.5-3.3,3.3-3.3s3.3,1.5,3.3,3.3V169
			C78.1,170.9,76.6,172.3,74.8,172.3z"/>
	</g>
	<g>
		<path class="st0" d="M106,172.3c-1.8,0-3.3-1.5-3.3-3.3v-46.8c0-1.8,1.5-3.3,3.3-3.3s3.3,1.5,3.3,3.3V169
			C109.3,170.9,107.8,172.3,106,172.3z"/>
	</g>
	<g>
		<path class="st0" d="M74.4,139.7c-1.4,0-2.7-0.8-3.2-2.3c-0.6-1.8,0.4-3.6,2.2-4.1l32.7-10.6c1.7-0.6,3.6,0.4,4.1,2.2
			c0.6,1.8-0.4,3.6-2.2,4.1l-32.7,10.6C75,139.7,74.7,139.7,74.4,139.7z"/>
	</g>
	<g>
		<path class="st0" d="M74.4,154.2c-1.4,0-2.7-0.8-3.2-2.3c-0.6-1.8,0.4-3.6,2.2-4.1l32.7-10.5c1.7-0.6,3.6,0.4,4.1,2.2
			c0.6,1.8-0.4,3.6-2.2,4.1l-32.7,10.6C75,154.2,74.7,154.2,74.4,154.2z"/>
	</g>
	<g>
		<path class="st0" d="M74.4,168.8c-1.4,0-2.7-0.8-3.2-2.3c-0.6-1.8,0.4-3.6,2.2-4.1l32.7-10.6c1.7-0.6,3.6,0.4,4.1,2.2
			c0.6,1.8-0.4,3.6-2.2,4.1l-32.7,10.6C75,168.8,74.7,168.8,74.4,168.8z"/>
	</g>
	<g>
		<path class="st0" d="M106,172.3c-1.8,0-3.3-1.5-3.3-3.3v-46.8c0-1.8,1.5-3.3,3.3-3.3s3.3,1.5,3.3,3.3V169
			C109.3,170.9,107.8,172.3,106,172.3z"/>
	</g>
	<g>
		<path class="st0" d="M137.1,172.3c-1.8,0-3.3-1.5-3.3-3.3v-46.8c0-1.8,1.5-3.3,3.3-3.3s3.3,1.5,3.3,3.3V169
			C140.4,170.9,138.9,172.3,137.1,172.3z"/>
	</g>
	<g>
		<path class="st0" d="M105.3,139.7c-1.4,0-2.7-0.8-3.2-2.3c-0.6-1.8,0.4-3.6,2.2-4.1l32.7-10.6c1.7-0.6,3.6,0.4,4.1,2.2
			c0.6,1.8-0.4,3.6-2.2,4.1l-32.7,10.6C106,139.7,105.6,139.7,105.3,139.7z"/>
	</g>
	<g>
		<path class="st0" d="M105.3,154.2c-1.4,0-2.7-0.8-3.2-2.3c-0.6-1.8,0.4-3.6,2.2-4.1l32.7-10.5c1.7-0.6,3.6,0.4,4.1,2.2
			c0.6,1.8-0.4,3.6-2.2,4.1l-32.7,10.6C106,154.2,105.6,154.2,105.3,154.2z"/>
	</g>
	<g>
		<path class="st0" d="M105.3,168.8c-1.4,0-2.7-0.8-3.2-2.3c-0.6-1.8,0.4-3.6,2.2-4.1l32.7-10.6c1.7-0.6,3.6,0.4,4.1,2.2
			c0.6,1.8-0.4,3.6-2.2,4.1l-32.7,10.6C106,168.8,105.6,168.8,105.3,168.8z"/>
	</g>
	<g>
		<path class="st0" d="M137.1,172.3c-1.8,0-3.3-1.5-3.3-3.3v-46.8c0-1.8,1.5-3.3,3.3-3.3s3.3,1.5,3.3,3.3V169
			C140.4,170.9,138.9,172.3,137.1,172.3z"/>
	</g>
	<g>
		<path class="st0" d="M168.2,172.3c-1.8,0-3.3-1.5-3.3-3.3v-46.8c0-1.8,1.5-3.3,3.3-3.3s3.3,1.5,3.3,3.3V169
			C171.5,170.9,170.1,172.3,168.2,172.3z"/>
	</g>
	<g>
		<path class="st0" d="M136.1,139.7c-1.4,0-2.7-0.8-3.2-2.3c-0.6-1.8,0.4-3.6,2.2-4.1l32.7-10.6c1.8-0.6,3.6,0.4,4.1,2.2
			c0.6,1.8-0.4,3.6-2.2,4.1L137,139.6C136.8,139.7,136.5,139.7,136.1,139.7z"/>
	</g>
	<g>
		<path class="st0" d="M136.1,154.2c-1.4,0-2.7-0.8-3.2-2.3c-0.6-1.8,0.4-3.6,2.2-4.1l32.7-10.6c1.8-0.6,3.6,0.4,4.1,2.2
			c0.6,1.8-0.4,3.6-2.2,4.1L137,154.1C136.8,154.2,136.5,154.2,136.1,154.2z"/>
	</g>
	<g>
		<path class="st0" d="M136.1,168.8c-1.4,0-2.7-0.8-3.2-2.3c-0.6-1.8,0.4-3.6,2.2-4.1l32.7-10.6c1.8-0.6,3.6,0.4,4.1,2.2
			c0.6,1.8-0.4,3.6-2.2,4.1L137,168.7C136.8,168.8,136.5,168.8,136.1,168.8z"/>
	</g>
	<g>
		<path class="st0" d="M168.2,172.3c-1.8,0-3.3-1.5-3.3-3.3v-46.8c0-1.8,1.5-3.3,3.3-3.3s3.3,1.5,3.3,3.3V169
			C171.5,170.9,170.1,172.3,168.2,172.3z"/>
	</g>
	<g>
		<path class="st0" d="M199.3,172.3c-1.8,0-3.3-1.5-3.3-3.3v-46.8c0-1.8,1.5-3.3,3.3-3.3s3.3,1.5,3.3,3.3V169
			C202.6,170.9,201.2,172.3,199.3,172.3z"/>
	</g>
	<g>
		<path class="st0" d="M167,139.7c-1.4,0-2.7-0.8-3.2-2.3c-0.6-1.8,0.4-3.6,2.2-4.1l32.7-10.6c1.8-0.6,3.6,0.4,4.1,2.2
			c0.6,1.8-0.4,3.6-2.2,4.1L168,139.6C167.7,139.7,167.4,139.7,167,139.7z"/>
	</g>
	<g>
		<path class="st0" d="M167,154.2c-1.4,0-2.7-0.8-3.2-2.3c-0.6-1.8,0.4-3.6,2.2-4.1l32.7-10.6c1.8-0.6,3.6,0.4,4.1,2.2
			s-0.4,3.6-2.2,4.1L168,154.1C167.7,154.2,167.4,154.2,167,154.2z"/>
	</g>
	<g>
		<path class="st0" d="M167,168.8c-1.4,0-2.7-0.8-3.2-2.3c-0.6-1.8,0.4-3.6,2.2-4.1l32.7-10.6c1.8-0.6,3.6,0.4,4.1,2.2
			s-0.4,3.6-2.2,4.1L168,168.6C167.7,168.8,167.4,168.8,167,168.8z"/>
	</g>
	<g>
		<path class="st0" d="M199.3,172.3c-1.8,0-3.3-1.5-3.3-3.3v-46.8c0-1.8,1.5-3.3,3.3-3.3s3.3,1.5,3.3,3.3V169
			C202.6,170.9,201.2,172.3,199.3,172.3z"/>
	</g>
	<g>
		<path class="st0" d="M230.5,172.3c-1.8,0-3.3-1.5-3.3-3.3v-46.8c0-1.8,1.5-3.3,3.3-3.3s3.3,1.5,3.3,3.3V169
			C233.9,170.9,232.3,172.3,230.5,172.3z"/>
	</g>
	<g>
		<path class="st0" d="M197.9,139.7c-1.4,0-2.7-0.8-3.2-2.3c-0.6-1.8,0.4-3.6,2.2-4.1l32.7-10.6c1.8-0.6,3.6,0.4,4.1,2.2
			c0.6,1.8-0.4,3.6-2.2,4.1l-32.7,10.6C198.6,139.7,198.3,139.7,197.9,139.7z"/>
	</g>
	<g>
		<path class="st0" d="M197.9,154.2c-1.4,0-2.7-0.8-3.2-2.3c-0.6-1.8,0.4-3.6,2.2-4.1l32.7-10.6c1.8-0.6,3.6,0.4,4.1,2.2
			c0.6,1.8-0.4,3.6-2.2,4.1l-32.7,10.6C198.6,154.2,198.3,154.2,197.9,154.2z"/>
	</g>
	<g>
		<path class="st0" d="M197.9,168.8c-1.4,0-2.7-0.8-3.2-2.3c-0.6-1.8,0.4-3.6,2.2-4.1l32.7-10.6c1.8-0.6,3.6,0.4,4.1,2.2
			c0.6,1.8-0.4,3.6-2.2,4.1l-32.7,10.6C198.6,168.8,198.3,168.8,197.9,168.8z"/>
	</g>
</g>
</svg>
