<?xml version="1.0" encoding="utf-8"?>
<!-- Generator: Adobe Illustrator 24.1.1, SVG Export Plug-In . SVG Version: 6.00 Build 0)  -->
<svg version="1.1" id="Layer_1" xmlns="http://www.w3.org/2000/svg" xmlns:xlink="http://www.w3.org/1999/xlink" x="0px" y="0px"
	 viewBox="0 0 260 218" style="enable-background:new 0 0 260 218;" xml:space="preserve">
<style type="text/css">
	.st0{fill:#FFFFFF;}
</style>
<g>
	<g>
		<g>
			<g>
				<path class="st0" d="M247.8,207.8H58.6c-4.7,0-8.5-3.8-8.5-8.5v-50c0-3.7,1.1-7.2,3.4-10.1l3.8-5.3c0.9-1.2,2.6-1.5,3.8-0.7
					c1.2,0.9,1.5,2.6,0.7,3.8l-3.8,5.3c-0.9,1.2-1.5,2.5-2,3.9c0.8-0.3,1.7-0.4,2.7-0.4h189.1c0.9,0,1.9,0.2,2.7,0.4
					c-0.4-1.4-1-2.7-2-3.9l-3.8-5.3c-0.9-1.2-0.7-2.9,0.7-3.8c1.2-0.9,2.9-0.7,3.8,0.7l3.8,5.3c2.2,2.9,3.4,6.5,3.4,10.1v50
					C256.3,203.9,252.4,207.8,247.8,207.8z M55.6,154.4v44.8c0,1.7,1.4,3.2,3.1,3.2h189.1c1.7,0,3.1-1.4,3.1-3.2v-44.8
					c0-1.7-1.4-3.2-3.1-3.2H58.6C56.8,151.3,55.6,152.7,55.6,154.4z M236.1,191.8H70.3c-1.5,0-2.7-1.2-2.7-2.7s1.2-2.7,2.7-2.7
					h165.8c1.5,0,2.7,1.2,2.7,2.7S237.6,191.8,236.1,191.8z M236.1,180H70.3c-1.5,0-2.7-1.2-2.7-2.7s1.2-2.7,2.7-2.7h165.8
					c1.5,0,2.7,1.2,2.7,2.7S237.6,180,236.1,180z M236.1,168.1H70.3c-1.5,0-2.7-1.2-2.7-2.7s1.2-2.7,2.7-2.7h165.8
					c1.5,0,2.7,1.2,2.7,2.7C238.8,166.9,237.6,168.1,236.1,168.1z M244.6,126.2H61.8c-2.8,0-5.5-1.4-7-3.9c-1.5-2.4-1.6-5.5-0.3-8.2
					l2.6-5.2c0.8-1.3,2.3-2,3.7-1.2c1.3,0.8,2,2.3,1.2,3.7l-2.6,5.2c-0.7,1.2-0.1,2.3,0.1,2.7c0.2,0.4,1,1.3,2.3,1.3h182.7
					c1.4,0,2.2-0.9,2.3-1.3c0.2-0.4,0.8-1.5,0.1-2.7l-2.6-5.2c-0.8-1.3-0.1-2.9,1.2-3.7c1.3-0.8,2.9-0.1,3.7,1.2l2.6,5.2
					c1.3,2.5,1.2,5.6-0.3,8.2C250.1,124.7,247.4,126.2,244.6,126.2z M244.6,101H61.8c-2.8,0-5.5-1.4-7-3.9c-1.5-2.4-1.6-5.5-0.3-8.2
					l2.6-5.2c0.8-1.3,2.3-2,3.7-1.2c1.3,0.8,2,2.3,1.2,3.7l-2.6,5.2c-0.7,1.2-0.1,2.3,0.1,2.7s1,1.3,2.3,1.3h182.7
					c1.4,0,2.2-0.9,2.3-1.3c0.2-0.4,0.8-1.5,0.1-2.7l-2.6-5.2c-0.8-1.3-0.1-2.9,1.2-3.7c1.3-0.8,2.9-0.1,3.7,1.2l2.6,5.2
					c1.3,2.5,1.2,5.6-0.3,8.2C250.1,99.5,247.4,101,244.6,101z M244.6,75.9H61.8c-2.8,0-5.5-1.4-7-3.9c-1.5-2.4-1.6-5.5-0.3-8.2
					l23.7-47.2c2-3.9,5.9-6.4,10.4-6.4h129.2c4.4,0,8.4,2.4,10.4,6.4L252,63.7c1.3,2.5,1.2,5.6-0.3,8.2
					C250.1,74.4,247.4,75.9,244.6,75.9z M88.6,15.8c-2.3,0-4.4,1.3-5.5,3.4L59.3,66.3c-0.7,1.2-0.1,2.3,0.1,2.7
					c0.2,0.4,1,1.3,2.3,1.3h182.7c1.4,0,2.2-0.9,2.3-1.3c0.2-0.4,0.8-1.5,0.1-2.7L223,19.2c-1-2.1-3.2-3.4-5.5-3.4
					C217.6,15.8,88.6,15.8,88.6,15.8z M217.1,63.5h-1.9c-1.5,0-2.7-1.2-2.7-2.7s1.2-2.7,2.7-2.7h1.9c1.5,0,2.7,1.2,2.7,2.7
					C219.9,62.3,218.8,63.5,217.1,63.5z M175.1,63.5h-1.9c-1.5,0-2.7-1.2-2.7-2.7s1.2-2.7,2.7-2.7h1.9c1.5,0,2.7,1.2,2.7,2.7
					S176.6,63.5,175.1,63.5z M132.9,63.5H131c-1.5,0-2.7-1.2-2.7-2.7s1.2-2.7,2.7-2.7h1.9c1.5,0,2.7,1.2,2.7,2.7
					S134.4,63.5,132.9,63.5z M90.9,63.5H89c-1.5,0-2.7-1.2-2.7-2.7s1.2-2.7,2.7-2.7h1.9c1.5,0,2.7,1.2,2.7,2.7S92.4,63.5,90.9,63.5z
					 M213.1,51.5h-1.7c-1.5,0-2.7-1.2-2.7-2.7s1.2-2.7,2.7-2.7h1.7c1.5,0,2.7,1.2,2.7,2.7S214.6,51.5,213.1,51.5z M173.8,51.5h-1.7
					c-1.5,0-2.7-1.2-2.7-2.7s1.2-2.7,2.7-2.7h1.7c1.5,0,2.7,1.2,2.7,2.7S175.3,51.5,173.8,51.5z M134.3,51.5h-1.7
					c-1.5,0-2.7-1.2-2.7-2.7s1.2-2.7,2.7-2.7h1.7c1.5,0,2.7,1.2,2.7,2.7S135.8,51.5,134.3,51.5z M94.8,51.5h-1.6
					c-1.5,0-2.7-1.2-2.7-2.7s1.2-2.8,2.7-2.8h1.7c1.5,0,2.7,1.2,2.7,2.7S96.3,51.5,94.8,51.5z M209.3,38.9h-1.6
					c-1.5,0-2.7-1.2-2.7-2.7s1.2-2.7,2.7-2.7h1.6c1.5,0,2.7,1.2,2.7,2.7S210.8,38.9,209.3,38.9z M172.4,38.9h-1.6
					c-1.5,0-2.7-1.2-2.7-2.7s1.2-2.7,2.7-2.7h1.6c1.5,0,2.7,1.2,2.7,2.7C175.1,37.7,173.9,38.9,172.4,38.9z M135.6,38.9H134
					c-1.5,0-2.7-1.2-2.7-2.7s1.2-2.7,2.7-2.7h1.6c1.5,0,2.7,1.2,2.7,2.7S137.2,38.9,135.6,38.9z M98.8,38.9h-1.6
					c-1.5,0-2.7-1.2-2.7-2.7s1.2-2.7,2.7-2.7h1.6c1.5,0,2.7,1.2,2.7,2.7S100.3,38.9,98.8,38.9z M205.9,27.7h-1.5
					c-1.5,0-2.7-1.2-2.7-2.7s1.2-2.7,2.7-2.7h1.5c1.5,0,2.7,1.2,2.7,2.7S207.4,27.7,205.9,27.7z M171.3,27.7h-1.5
					c-1.5,0-2.7-1.2-2.7-2.7s1.2-2.7,2.7-2.7h1.5c1.5,0,2.7,1.2,2.7,2.7S172.6,27.7,171.3,27.7z M136.6,27.7h-1.5
					c-1.5,0-2.7-1.2-2.7-2.7s1.2-2.7,2.7-2.7h1.5c1.5,0,2.7,1.2,2.7,2.7S138.1,27.7,136.6,27.7z M101.8,27.7h-1.5
					c-1.5,0-2.7-1.2-2.7-2.7s1.2-2.7,2.7-2.7h1.5c1.5,0,2.7,1.2,2.7,2.7S103.3,27.7,101.8,27.7z"/>
			</g>
		</g>
	</g>
</g>
</svg>
