<?xml version="1.0" encoding="UTF-8"?>
<svg id="Layer_1" data-name="Layer 1" xmlns="http://www.w3.org/2000/svg" viewBox="0 0 355.25 96.13">
  <defs>
    <style>
      .cls-1 {
        fill-rule: evenodd;
      }

      .cls-1, .cls-2 {
        fill: #ffc400;
        stroke-width: 0px;
      }
    </style>
  </defs>
  <g>
    <path class="cls-1" d="m256.48,40.01c.8-.87,7.07-5.31,6.45-5.93-5.88-5.55-14.31-8.32-22.33-6.71-1.66.27-4.06.9-5.51,1.44-1.06,2.09-3.36,8.94-4.42,11.59-.85,2.3-.84,2.3-.83,2.3,2.9-1.86,6.18-3.37,9.63-4.14,5.19-1.19,10.82-.15,15.4,2.38.11.07.22.16,1.6-.94Z"/>
    <path class="cls-1" d="m245.28,49.66c-1.33-.32-5.46.21-7.16.17-1.42.06-1.42.05-1.43.07,0,.02-.01.06-.07.49-.6,4.88-1.86,17.54-9.33,12.52-.13-.12-.31-.15-.32-.26.73-1.07,3.58-4.3,4.54-5.56.9-1.08.92-1.08.64-1.36-1.03-.95-4.02-3.77-5.15-4.77-.75-.68-.77-.7-.78-.7-1.88,1.96-7.21,7.91-9.51,10.34-2.39,2.51-1.72,2.02-2.58,2.62-.89.38-1.32-.72-.67-1.35,2-2.33,5.62-6.15,7.21-8.32-.01-.03-.04-.07-.99-.9-1.06-.93-3.84-3.36-4.76-4.01-2.73,2.81-11.42,12.08-14.14,14.9-1.11.87-2.21-.68-1.2-1.58,1.62-1.79,6.83-7.19,8.34-9.03-1.26-1.14-5.34-5.05-6.6-6.18-2.4,2.6-9.3,10.14-12.33,13.42-3.56,3.43-3.49,5.17-6.2,4.15-1.15-1.25-3.4-4.53-4.24-5.98,2.36-7.68-2.59-15.27-9.01-19.21-.37-.34-1.16-.53-.86-.8,1.04-.57,2.84-1.58,4.35-2.4,3.28-1.9,10.69-5.82,13.77-7.7.02-.04.04-.1.46-2.11.49-2.32,1.69-8.09,2.11-9.96,0,0-.03,0-4.69,2.66-4.66,2.66-13.96,7.98-18.74,10.72-9.72,4.51-12.24,10.22-4.27,16.03,3.29,2.38,9.37,3.95,8.6,9.03-4.39,12.43-26.77,13.91-37.84,11.46-7.82-1.39-6.89-6.78-4.8-12.83,1.01-2.79,1.87-8.34-2.65-7.61-3.06,1.74-4.22,6.24-5.5,9.47-11.09,33.58,38.2,26.55,53.25,12.55,3.78,9.4,9.43,13.11,17.18,4.28.43-.28,2.43-2.61,2.33-1.91,2.29,9.68,8.6,9.03,14.2,2.14.37-.28.83-1.31.98-.71,3.53,7.85,9.44,3.26,13.47-1.31.3-.23.08-.17.39.05,13.99,14.42,25.75-7.19,23.99-20.54Z"/>
    <path class="cls-1" d="m219.25,37.59c1.92-1.42,6.25-5.32,8.12-6.84-1.69-1.67-4.01-3.27-6.14-4.53-1.58-.94-3.34-1.68-4.86-2.42,0-.01,0-.03.86-.98.97-1.1,3.46-3.88,4.24-4.79-2.26-3.05-5.61-6.2-9.53-6.74-1.14,0-3.58-.43-4.09.82-.9,1.75-3.41,6.41-4.26,8.12,3.22.33,7.39.53,9.78,3.11-1.03-.07-2.42-.48-3.77-.48-4.08-.21-8.71.68-12.34,2.39-.71,2.2-3.16,9.03-4.06,11.69-.8,2.42-.94,2.36-.75,2.39,7.88-4.75,18.58-6.79,26.8-1.73Z"/>
    <path class="cls-1" d="m78.43,72.49c1.57,1.3,6.85,5.84,8.49,6.87,12.24-10.52,21.37-25.24,24.18-41.23.07-.56.18-.38,0-.59-1.01-.64-2.25-1.48-3.92-2.54-1.58-1.02-3.41-2.17-4.39-2.8-.64,3-1.42,6.48-2.46,9.48-3.88,12.2-11.55,23.26-21.89,30.79Z"/>
    <path class="cls-1" d="m40.26,86.95c1.58-1.19,6.65-5.62,8.15-6.92-7.87-7.25-19.77-9.82-29.66-5.37-1.08,2.58-4.55,11.25-5.52,13.86,1.76-.92,3.96-2.14,6-2.86,6.71-2.73,14.77-2.27,21.03,1.3Z"/>
    <path class="cls-1" d="m34.24,64.64c-45.86,1.67-20.94-40.14.43-55.97.64-.49,1.07-.88,1.46-1.04.86,1.47,3.54,5.73,4.58,7.49.91,1.5.92,1.53.89,1.56-.78.65-1.76,1.4-3.05,2.52-5.96,5-29.89,27.93-14.54,32.58,6.02,1.53,13.04.39,18.99-.85,3.59-1.05-.04-5.43-.86-7.23,1.56,0,6.49,0,8.39,0,1.66,0,1.7,0,1.73.01.29.4.49.92.86,1.75,6.94,14.73-7.53,17.89-18.89,19.17Z"/>
    <path class="cls-1" d="m90.38,40.36c-.67-13.59-16.28-12.53-23.25-4.11-5.52,6.25-15.4,24.89-2.29,27.86-2.18,1.93-5.63,3.83-7.9,5.36,1.39,1.33,5.93,5.76,7.34,7.06,2.98-.56,5.81-2.71,8.12-4.64,8.68-8.16,17.93-19.01,17.98-31.52Zm-5.74-1.22c-.42,2.45-1.35,5.07-2.32,7.41-.37,1-1.12,3.3-2.61,2.05-2.55,3.42-7.89,12-12.73,10.31-3.15-3.22,3.43-12.94,5.75-15.88,2.01-2.66,11.99-11.79,11.92-3.88Z"/>
  </g>
  <g>
    <path class="cls-2" d="m348.03,23.07c-.44-1.32-5.16-.4-6.48-.66-3.21.49-7.59-1.37-9.87,1.47-4.33,4.43-21.18,21.55-25.8,26.28-1.86,1.6-3.71,5.16-6.6,3.58-4.53-3.37,2.39-7.23,4.44-9.93,2.44-2.51,4.89-5.01,7.32-7.53,6.07-6.02,5.82-16.27-.57-21.89-11.75-11.05-31.34,2.23-24.59,17.34.77,1.32,1.94,4.94,3.84,3.33,1.69-2.4,7.96-6.51,7.54-9.2-.2-.83,0-1.71.54-2.41,2.47-3.22,7.38.9,4.57,3.85-2.62,2.78-5.42,5.57-8.08,8.33-4.36,4.32-9.65,9.08-9.19,15.71-.16,8.83,8.36,16.17,17.08,15.01,7.61-.54,11.89-7.67,16.95-12.46,6.76-7,17.72-18.36,24.48-25.38,1.09-1.59,4.46-3.61,4.41-5.43Z"/>
    <path class="cls-2" d="m323.39,77.42c-.08-1.56-2.21-1.58-3.33-2.16-7.5-2.92-14.74,4.08-22.27.88-2.4-.83-3.34,5.23-4.58,6.81-1.27,3.95,10.43,2.83,12.35,1.75,15.03-5.41,12.09,7.73,17.82-7.29Z"/>
  </g>
</svg>