<?xml version="1.0" encoding="utf-8"?>
<!-- Generator: Adobe Illustrator 24.1.1, SVG Export Plug-In . SVG Version: 6.00 Build 0)  -->
<svg version="1.1" id="Layer_1" xmlns="http://www.w3.org/2000/svg" xmlns:xlink="http://www.w3.org/1999/xlink" x="0px" y="0px"
	 viewBox="0 0 260 218" style="enable-background:new 0 0 260 218;" xml:space="preserve">
<style type="text/css">
	.st0{fill:#FFFFFF;}
</style>
<g>
	<g>
		<g>
			<g>
				<path class="st0" d="M236,161H50c-6.5,0-12.8-1.8-18.2-5.3C21.2,149.2,15,137.8,15,125.3c0-5.2,1-10.3,3.2-14.9l0,0
					c2.6-5.9,6.7-10.8,11.9-14.4h-1.3c-1.3,0-2.5-0.8-2.9-1.9C19.5,91,15,84.3,15,76.5C14.9,65.7,23.5,57,34,57h186
					c6.4,0,12.8,1.8,18.2,5.3c10.5,6.5,16.8,17.9,16.8,30.4c0,11.9-5.6,22.7-15.1,29.3h1.3c1.3,0,2.5,0.8,2.9,1.9
					c6.4,3.1,10.9,9.8,10.9,17.6C255.1,152.3,246.5,161,236,161z M23.9,113c-1.8,3.9-2.6,8-2.6,12.3c0,10.3,5.2,19.7,13.8,25.1
					c4.5,2.8,9.5,4.3,14.9,4.3h186c7,0,12.8-5.9,12.8-13c0-7.2-5.7-13-12.8-13H60.6c-1.8,0-3.2-1.4-3.2-3.2s1.4-3.2,3.2-3.2H220
					c5.4,0,10.4-1.4,14.8-4.3c8.7-5.4,13.8-14.7,13.8-25.1s-5.2-19.7-13.8-25.1c-4.5-2.8-9.5-4.3-14.9-4.3H34c-7,0-12.8,5.9-12.8,13
					c0,7.2,5.7,13,12.8,13h184.6c1.8,0,3.2,1.4,3.2,3.2s-1.4,3.2-3.2,3.2H50c-5.4,0-10.4,1.4-14.8,4.3
					C30.2,103.2,26.4,107.7,23.9,113L23.9,113z"/>
			</g>
		</g>
	</g>
</g>
</svg>
