<?xml version="1.0" encoding="utf-8"?>
<!-- Generator: Adobe Illustrator 24.1.1, SVG Export Plug-In . SVG Version: 6.00 Build 0)  -->
<svg version="1.1" id="Layer_1" xmlns="http://www.w3.org/2000/svg" xmlns:xlink="http://www.w3.org/1999/xlink" x="0px" y="0px"
	 viewBox="0 0 260 218" style="enable-background:new 0 0 260 218;" xml:space="preserve">
<style type="text/css">
	.st0{clip-path:url(#SVGID_2_);}
	.st1{fill:#FFFFFF;}
</style>
<g>
	<g>
		<g>
			<g>
				<g>
					<g>
						<g>
							<g>
								<defs>
									<rect id="SVGID_1_" x="14.4" y="17.7" width="241.3" height="182.6"/>
								</defs>
								<clipPath id="SVGID_2_">
									<use xlink:href="#SVGID_1_"  style="overflow:visible;"/>
								</clipPath>
								<g class="st0">
									<path class="st1" d="M245.6,200.2H24.4c-5.5,0-10-4.5-10-10.1v-88.5c0-0.7,0.1-1.3,0.2-1.9c-0.1-0.3-0.2-0.7-0.2-1
										c0-4.9,1.1-9.8,3.3-14.2l29.7-59.3c2.3-4.6,6.9-7.5,12.1-7.5h151.2c5.1,0,9.8,2.8,12.1,7.5l29.7,59.3
										c2.2,4.4,3.3,9.3,3.3,14.2c0,0.4-0.1,0.8-0.2,1c0.1,0.7,0.2,1.2,0.2,1.9V190C255.7,195.7,251.1,200.2,245.6,200.2z
										 M20.8,187.7v2.5c0,2.1,1.6,3.7,3.6,3.7h221.3c2,0,3.6-1.7,3.6-3.7v-2.5H20.8z M20.8,181.2h228.5v-70.8H20.8V181.2z
										 M20.8,104.1h228.5v-2.5c0-2.1-1.6-3.7-3.6-3.7H24.4c-2,0-3.6,1.7-3.6,3.7C20.8,101.8,20.8,104.1,20.8,104.1z M24.4,91.6
										h221.3c0.9,0,1.9,0.1,2.7,0.4c-0.5-1.6-1-3.1-1.7-4.5L217,28.2c-1.2-2.5-3.7-4-6.3-4H59.5c-2.7,0-5.1,1.5-6.3,4L23.5,87.4
										c-0.8,1.4-1.3,2.9-1.7,4.5C22.6,91.8,23.5,91.6,24.4,91.6z M214.3,172c-10.5,0-21.1-3.7-21.1-10.9c0-1.8,1.4-3.2,3.2-3.2
										s3.2,1.4,3.2,3.2c0,1.1,5.1,4.5,14.8,4.5s14.8-3.3,14.8-4.5c0-1.8,1.4-3.2,3.2-3.2s3.2,1.4,3.2,3.2
										C235.5,168.3,224.8,172,214.3,172z M161.3,172c-10.5,0-21.1-3.7-21.1-10.9c0-1.8,1.4-3.2,3.2-3.2s3.2,1.4,3.2,3.2
										c0,1.1,5.1,4.5,14.8,4.5s14.8-3.3,14.8-4.5c0-1.8,1.4-3.2,3.2-3.2s3.2,1.4,3.2,3.2C182.6,168.3,172,172,161.3,172z
										 M108.6,172c-10.5,0-21.1-3.7-21.1-10.9c0-1.8,1.4-3.2,3.2-3.2c1.8,0,3.2,1.4,3.2,3.2c0,1.1,5.1,4.5,14.8,4.5
										s14.8-3.3,14.8-4.5c0-1.8,1.4-3.2,3.2-3.2c1.8,0,3.2,1.4,3.2,3.2C129.6,168.3,119.1,172,108.6,172z M55.8,172
										c-10.5,0-21.1-3.7-21.1-10.9c0-1.8,1.4-3.2,3.2-3.2s3.2,1.4,3.2,3.2c0,1.1,5.1,4.5,14.8,4.5s14.8-3.3,14.8-4.5
										c0-1.8,1.4-3.2,3.2-3.2c1.8,0,3.2,1.4,3.2,3.2C76.9,168.3,66.3,172,55.8,172z M214.3,157.1c-10.5,0-21.1-3.7-21.1-10.9
										c0-1.8,1.4-3.2,3.2-3.2s3.2,1.4,3.2,3.2c0,1.1,5.1,4.5,14.8,4.5s14.8-3.3,14.8-4.5c0-1.8,1.4-3.2,3.2-3.2s3.2,1.4,3.2,3.2
										C235.5,153.3,224.8,157.1,214.3,157.1z M161.3,157.1c-10.5,0-21.1-3.7-21.1-10.9c0-1.8,1.4-3.2,3.2-3.2s3.2,1.4,3.2,3.2
										c0,1.1,5.1,4.5,14.8,4.5s14.8-3.3,14.8-4.5c0-1.8,1.4-3.2,3.2-3.2s3.2,1.4,3.2,3.2C182.6,153.3,172,157.1,161.3,157.1z
										 M108.6,157.1c-10.5,0-21.1-3.7-21.1-10.9c0-1.8,1.4-3.2,3.2-3.2c1.8,0,3.2,1.4,3.2,3.2c0,1.1,5.1,4.5,14.8,4.5
										s14.8-3.3,14.8-4.5c0-1.8,1.4-3.2,3.2-3.2c1.8,0,3.2,1.4,3.2,3.2C129.6,153.3,119.1,157.1,108.6,157.1z M55.8,157.1
										c-10.5,0-21.1-3.7-21.1-10.9c0-1.8,1.4-3.2,3.2-3.2s3.2,1.4,3.2,3.2c0,1.1,5.1,4.5,14.8,4.5s14.8-3.3,14.8-4.5
										c0-1.8,1.4-3.2,3.2-3.2c1.8,0,3.2,1.4,3.2,3.2C76.9,153.3,66.3,157.1,55.8,157.1z M214.3,142.2c-10.5,0-21.1-3.7-21.1-10.9
										c0-7.1,10.6-10.9,21.1-10.9s21.1,3.7,21.1,10.9C235.5,138.6,224.8,142.2,214.3,142.2z M214.3,126.9
										c-9.7,0-14.8,3.3-14.8,4.5s5.1,4.5,14.8,4.5s14.8-3.3,14.8-4.5S223.8,126.9,214.3,126.9z M161.3,142.2
										c-10.5,0-21.1-3.7-21.1-10.9c0-7.1,10.6-10.9,21.1-10.9s21.1,3.7,21.1,10.9C182.6,138.6,172,142.2,161.3,142.2z
										 M161.3,126.9c-9.7,0-14.8,3.3-14.8,4.5s5.1,4.5,14.8,4.5s14.8-3.3,14.8-4.5S171,126.9,161.3,126.9z M108.6,142.2
										c-10.5,0-21.1-3.7-21.1-10.9c0-7.1,10.6-10.9,21.1-10.9s21.1,3.7,21.1,10.9C129.6,138.6,119.1,142.2,108.6,142.2z
										 M108.6,126.9c-9.7,0-14.8,3.3-14.8,4.5s5.1,4.5,14.8,4.5s14.8-3.3,14.8-4.5S118.3,126.9,108.6,126.9z M55.8,142.2
										c-10.5,0-21.1-3.7-21.1-10.9c0-7.1,10.6-10.9,21.1-10.9s21.1,3.7,21.1,10.9C76.9,138.6,66.3,142.2,55.8,142.2z M55.8,126.9
										c-9.7,0-14.8,3.3-14.8,4.5s5.1,4.5,14.8,4.5s14.8-3.3,14.8-4.5S65.4,126.9,55.8,126.9z M209.9,80.4h-2.1
										c-1.8,0-3.2-1.4-3.2-3.2c0-1.8,1.4-3.2,3.2-3.2h2.1c1.8,0,3.2,1.4,3.2,3.2C213.2,79,211.5,80.4,209.9,80.4z M160.6,80.4
										h-2.1c-1.8,0-3.2-1.4-3.2-3.2c0-1.8,1.4-3.2,3.2-3.2h2.1c1.8,0,3.2,1.4,3.2,3.2C163.9,79,162.5,80.4,160.6,80.4z
										 M111.5,80.4h-2.1c-1.8,0-3.2-1.4-3.2-3.2c0-1.8,1.4-3.2,3.2-3.2h2.1c1.8,0,3.2,1.4,3.2,3.2S113.3,80.4,111.5,80.4z
										 M62.3,80.4h-2.1c-1.8,0-3.2-1.4-3.2-3.2c0-1.8,1.4-3.2,3.2-3.2h2.1c1.8,0,3.2,1.4,3.2,3.2C65.4,79,64,80.4,62.3,80.4z
										 M205.1,66.2h-2c-1.8,0-3.2-1.4-3.2-3.2s1.4-3.2,3.2-3.2h2c1.8,0,3.2,1.4,3.2,3.2C208.4,64.8,206.8,66.2,205.1,66.2z
										 M158.9,66.2h-2c-1.8,0-3.2-1.4-3.2-3.2s1.4-3.2,3.2-3.2h2c1.8,0,3.2,1.4,3.2,3.2C162.1,64.8,160.8,66.2,158.9,66.2z
										 M113,66.2h-2c-1.8,0-3.2-1.4-3.2-3.2s1.4-3.2,3.2-3.2h2c1.8,0,3.2,1.4,3.2,3.2C116.2,64.8,114.8,66.2,113,66.2z
										 M66.8,66.2h-2c-1.8,0-3.2-1.4-3.2-3.2s1.4-3.2,3.2-3.2h2c1.8,0,3.2,1.4,3.2,3.2C70.1,64.8,68.6,66.2,66.8,66.2z
										 M200.6,51.5h-1.9c-1.8,0-3.2-1.4-3.2-3.2s1.4-3.2,3.2-3.2h1.9c1.8,0,3.2,1.4,3.2,3.2S202.3,51.5,200.6,51.5z M157.5,51.5
										h-1.9c-1.8,0-3.2-1.4-3.2-3.2s1.4-3.2,3.2-3.2h1.9c1.8,0,3.2,1.4,3.2,3.2S159.2,51.5,157.5,51.5z M114.4,51.5h-1.9
										c-1.8,0-3.2-1.4-3.2-3.2s1.4-3.2,3.2-3.2h1.9c1.8,0,3.2,1.4,3.2,3.2S116.2,51.5,114.4,51.5z M71.3,51.5h-1.9
										c-1.8,0-3.2-1.4-3.2-3.2s1.4-3.2,3.2-3.2h1.9c1.8,0,3.2,1.4,3.2,3.2S73.1,51.5,71.3,51.5z M196.8,38.2h-1.7
										c-1.8,0-3.2-1.4-3.2-3.2s1.4-3.2,3.2-3.2h1.7c1.8,0,3.2,1.4,3.2,3.2C199.9,36.8,198.5,38.2,196.8,38.2z M156.1,38.2h-1.7
										c-1.8,0-3.2-1.4-3.2-3.2s1.4-3.2,3.2-3.2h1.7c1.8,0,3.2,1.4,3.2,3.2S158,38.2,156.1,38.2z M115.6,38.2h-1.7
										c-1.8,0-3.2-1.4-3.2-3.2s1.4-3.2,3.2-3.2h1.7c1.8,0,3.2,1.4,3.2,3.2C118.8,36.8,117.3,38.2,115.6,38.2z M75.1,38.2h-1.7
										c-1.8,0-3.2-1.4-3.2-3.2s1.4-3.2,3.2-3.2h1.7c1.8,0,3.2,1.4,3.2,3.2C78.3,36.8,76.8,38.2,75.1,38.2z"/>
								</g>
							</g>
						</g>
					</g>
				</g>
			</g>
		</g>
	</g>
</g>
</svg>
