<?xml version="1.0" encoding="utf-8"?>
<!-- Generator: Adobe Illustrator 24.1.1, SVG Export Plug-In . SVG Version: 6.00 Build 0)  -->
<svg version="1.1" id="Layer_1" xmlns="http://www.w3.org/2000/svg" xmlns:xlink="http://www.w3.org/1999/xlink" x="0px" y="0px"
	 viewBox="0 0 260 218" style="enable-background:new 0 0 260 218;" xml:space="preserve">
<style type="text/css">
	.st0{fill:none;stroke:#FFFFFF;stroke-width:6.4;stroke-linecap:round;stroke-linejoin:round;stroke-miterlimit:10;}
</style>
<g>
	<line class="st0" x1="228.9" y1="104.7" x2="231" y2="104.7"/>
	<line class="st0" x1="208.1" y1="104.7" x2="210.2" y2="104.7"/>
	<path class="st0" d="M159,118.6l-11.7-0.2c-0.8-0.2-1.6-0.1-2.3,0.3c-0.7,0.5-1.1,1.2-1.1,1.9v29.6 M227.8,67h-62.2
		c-2.3,0-4.4,1.2-5.6,3.2c-0.6,1-1,2.1-1.1,3.2c0,1.1,0.4,2.2,0.9,3.2l12.1,22.2c2,3.8,2.2,8.2,0.5,12.1s-5.1,6.8-9.3,7.8h-4.3
		 M185.8,111.6c1.5-6.4,0.8-13.2-2.4-19L176.5,80H216 M163.3,118.6h0.2c10.8,0,21.1-4.5,28.5-12.5L227.8,67"/>
	<path class="st0" d="M247.8,174.7H22.2c-3.9,0-6.9-3.2-6.9-7.2v-42.8c0-4,3.1-7.2,6.9-7.2h225.6c3.9,0,6.9,3.2,6.9,7.2v42.8
		C254.8,171.4,251.6,174.7,247.8,174.7z"/>
	<path class="st0" d="M15.2,124.6L15.2,124.6c0-4.6,1.1-9.2,3.1-13.3l30.2-62c1.8-3.7,5.4-6,9.5-6h30.8h92.6h30.8c4,0,7.6,2.3,9.5,6
		l30.2,62c2,4.1,3.1,8.7,3.1,13.3"/>
	<line class="st0" x1="224.1" y1="89.8" x2="226.2" y2="89.8"/>
	<line class="st0" x1="144" y1="133" x2="144" y2="174"/>
	<line class="st0" x1="162" y1="133" x2="162" y2="159.1"/>
	<line class="st0" x1="180" y1="133" x2="180" y2="159.1"/>
	<line class="st0" x1="197.9" y1="133" x2="197.9" y2="159.1"/>
	<line class="st0" x1="215.9" y1="133" x2="215.9" y2="159.1"/>
	<line class="st0" x1="233.9" y1="133" x2="233.9" y2="159.1"/>
</g>
</svg>
