<?xml version="1.0" encoding="utf-8"?>
<!-- Generator: Adobe Illustrator 24.1.1, SVG Export Plug-In . SVG Version: 6.00 Build 0)  -->
<svg version="1.1" id="Layer_1" xmlns="http://www.w3.org/2000/svg" xmlns:xlink="http://www.w3.org/1999/xlink" x="0px" y="0px"
	 viewBox="0 0 260 218" style="enable-background:new 0 0 260 218;" xml:space="preserve">
<style type="text/css">
	.st0{fill:none;stroke:#FFFFFF;stroke-width:6.916;stroke-linecap:round;stroke-linejoin:round;stroke-miterlimit:10;}
</style>
<path class="st0" d="M252.3,130.8l-28.9-36.3l-7.6-9.5c-2.8-3.5-7.1-5.7-11.9-5.7h-5.4"/>
<path class="st0" d="M21.7,130.8l28.9-36.3l7.6-9.5c2.8-3.5,7-5.7,11.9-5.7h5.4"/>
<line class="st0" x1="146.8" y1="79.2" x2="127.2" y2="79.2"/>
<polyline class="st0" points="50.5,77.2 50.5,23 223.5,23 223.5,77.2 "/>
<path class="st0" d="M199.7,72.8c0-7.2-5.8-13-13-13h-28.1c-7.2,0-13,5.8-13,13V75c0,4.8,3.9,8.6,8.6,8.6H191c4.8,0,8.6-3.9,8.6-8.6
	L199.7,72.8L199.7,72.8z"/>
<path class="st0" d="M74.3,72.8c0-7.2,5.8-13,13-13h28.1c7.2,0,13,5.8,13,13V75c0,4.8-3.9,8.6-8.6,8.6H83c-4.8,0-8.6-3.9-8.6-8.6
	L74.3,72.8L74.3,72.8z"/>
<path class="st0" d="M43.7,126.8H28.9c-4.8,0-8.6,3.9-8.6,8.6v17.3c0,4.8,3.9,8.6,8.6,8.6"/>
<path class="st0" d="M43.7,161.4H28.9c-4.8,0-8.6,3.9-8.6,8.6v17.3c0,4.8,3.9,8.6,8.6,8.6"/>
<path class="st0" d="M20.3,139.3v13.5c0,4.8,3.9,8.6,8.6,8.6h202.7h13.5c4.8,0,8.6-3.9,8.6-8.6v-13.5"/>
<path class="st0" d="M20.3,173.8v13.5c0,4.8,3.9,8.6,8.6,8.6h202.7h13.5c4.8,0,8.6-3.9,8.6-8.6v-13.5"/>
<path class="st0" d="M245.1,161.4c4.8,0,8.6-3.9,8.6-8.6v-17.3c0-4.8-3.9-8.6-8.6-8.6h-204"/>
<path class="st0" d="M245.1,196c4.8,0,8.6-3.9,8.6-8.6V170c0-4.8-3.9-8.6-8.6-8.6h-204"/>
<line class="st0" x1="230.3" y1="103" x2="43.7" y2="103"/>
</svg>
